<?xml version="1.0" standalone="no"?>
<!DOCTYPE svg PUBLIC "-//W3C//DTD SVG 20010904//EN"
 "http://www.w3.org/TR/2001/REC-SVG-20010904/DTD/svg10.dtd">
<svg version="1.0" xmlns="http://www.w3.org/2000/svg"
 width="1000.000000pt" height="1000.000000pt" viewBox="0 0 1000.000000 1000.000000"
 preserveAspectRatio="xMidYMid meet">
<metadata>
Created by potrace 1.14, written by Peter Selinger 2001-2017
</metadata>
<g transform="translate(0.000000,1000.000000) scale(0.100000,-0.100000)"
fill="#000000" stroke="none">
<path d="M2266 9373 c-77 -154 -110 -309 -110 -508 1 -128 5 -164 26 -246 58
-217 165 -399 335 -571 l66 -68 -12 -42 c-20 -68 -54 -119 -127 -188 -146
-139 -263 -258 -328 -334 l-69 -79 6 44 c4 24 16 85 27 134 27 116 37 350 21
466 -49 341 -230 607 -529 773 -98 55 -106 52 -137 -46 -147 -466 15 -947 428
-1267 l67 -53 0 -72 c0 -100 -15 -142 -100 -281 -89 -148 -197 -361 -241 -477
-18 -49 -35 -88 -39 -88 -16 0 -30 77 -20 111 6 19 17 72 25 119 68 391 -18
735 -246 984 -63 69 -201 174 -290 221 -80 42 -89 38 -119 -55 -70 -216 -67
-498 7 -703 76 -213 222 -410 418 -563 62 -49 79 -68 94 -110 43 -114 53 -276
26 -417 -21 -108 -45 -311 -45 -374 0 -51 -12 -69 -24 -37 -3 9 -6 38 -6 66 0
28 -7 97 -16 155 -73 497 -355 828 -802 943 -114 30 -125 27 -135 -35 -14 -93
7 -273 49 -412 97 -323 357 -589 712 -730 l94 -37 35 -69 c55 -109 91 -235
103 -354 18 -182 64 -432 111 -601 11 -41 19 -76 16 -78 -2 -3 -27 13 -54 34
-46 37 -50 43 -62 107 -6 38 -26 111 -43 163 -130 408 -399 676 -763 763 -88
20 -250 39 -273 31 -28 -10 -4 -193 43 -332 128 -377 409 -622 854 -745 111
-31 178 -73 296 -186 l81 -78 52 -139 c29 -76 72 -182 96 -235 24 -53 43 -97
41 -97 -2 0 -23 28 -48 62 -112 157 -309 334 -481 432 -223 127 -506 176 -761
131 -112 -20 -305 -84 -319 -107 -13 -21 11 -66 93 -181 180 -254 453 -433
761 -500 144 -32 419 -31 592 2 l127 24 68 -55 c107 -88 180 -163 287 -298 55
-69 166 -192 248 -275 81 -82 148 -152 148 -154 0 -2 -17 -1 -38 2 -26 3 -72
27 -137 71 -187 128 -447 235 -659 271 -121 20 -312 21 -423 1 -179 -32 -389
-124 -535 -234 -110 -83 -148 -119 -148 -141 0 -19 88 -96 182 -159 132 -90
357 -178 528 -208 122 -21 400 -15 505 10 194 47 394 130 544 226 80 51 82 52
137 45 31 -4 101 -18 156 -31 97 -24 105 -27 245 -128 165 -117 388 -254 577
-352 82 -43 123 -69 115 -74 -8 -4 -54 -17 -102 -29 l-88 -23 -87 58 c-189
126 -404 217 -632 266 -142 32 -378 31 -518 0 -212 -48 -407 -144 -584 -290
-78 -64 -83 -83 -35 -125 110 -97 215 -164 361 -233 314 -146 679 -165 1031
-54 125 39 330 139 454 220 102 67 170 90 332 112 l86 11 96 -41 c149 -64 432
-167 586 -214 77 -24 141 -45 141 -48 0 -3 -35 -22 -79 -44 l-78 -38 -64 21
c-103 34 -235 60 -372 73 -370 35 -704 -76 -948 -314 -116 -113 -259 -316
-259 -367 0 -25 39 -46 160 -89 150 -52 246 -67 435 -67 228 0 356 30 555 130
172 87 344 234 502 428 90 111 134 139 288 183 l90 26 77 -17 c72 -16 81 -16
162 0 l86 18 109 -37 c157 -53 200 -80 278 -178 85 -107 243 -260 338 -327
135 -95 299 -168 465 -207 117 -28 393 -26 525 3 100 23 219 62 283 94 47 24
47 43 2 120 -120 205 -284 368 -475 472 -286 157 -703 177 -1077 54 l-68 -23
-83 42 c-46 23 -79 44 -75 47 4 2 55 19 113 37 171 52 354 117 540 193 l174
70 83 -12 c167 -24 252 -52 365 -123 310 -195 579 -279 891 -278 288 0 544 81
793 249 113 77 174 132 174 157 0 38 -194 181 -355 262 -86 43 -239 93 -345
113 -99 19 -347 17 -455 -5 -216 -42 -459 -144 -650 -272 l-90 -60 -90 24
c-49 13 -98 27 -108 31 -14 5 12 22 100 69 267 141 461 260 651 401 74 55 93
64 181 85 54 13 128 27 164 31 l66 7 85 -52 c112 -67 290 -151 391 -183 160
-52 234 -62 450 -61 183 0 208 3 297 26 206 56 393 148 542 269 53 42 76 67
76 82 0 30 -160 155 -292 229 -443 249 -973 205 -1462 -122 -87 -58 -115 -72
-158 -77 l-53 -6 120 119 c130 128 198 204 317 354 81 102 190 211 279 278
l55 41 80 -18 c246 -59 541 -53 758 16 277 87 513 266 677 516 93 141 93 141
-57 191 -134 45 -263 66 -405 66 -321 0 -604 -125 -865 -385 -61 -60 -140
-148 -174 -195 -34 -47 -66 -86 -70 -88 -5 -2 15 50 45 115 29 65 75 177 101
248 55 146 75 174 209 282 101 82 115 89 233 118 436 111 736 374 861 755 45
138 66 312 38 323 -21 8 -184 -11 -274 -33 -182 -43 -334 -128 -469 -264 -162
-161 -270 -371 -333 -646 -11 -46 -24 -86 -30 -88 -5 -2 -30 -19 -55 -38 -25
-19 -47 -34 -49 -34 -2 0 13 69 34 154 42 170 71 338 93 526 16 137 51 256
107 360 32 60 38 65 89 82 93 31 251 113 340 177 293 209 449 491 475 856 3
50 2 110 -2 135 -11 56 -23 59 -135 30 -478 -123 -773 -503 -814 -1047 -4 -61
-12 -97 -24 -113 -17 -23 -17 -23 -23 31 -4 30 -9 90 -12 134 -4 44 -17 139
-30 210 -13 72 -23 148 -23 170 -1 80 19 217 39 268 17 44 31 60 95 107 145
105 302 289 380 443 45 88 90 224 104 311 14 89 14 262 -1 357 -13 87 -55 228
-74 247 -16 18 -97 -22 -219 -109 -245 -175 -386 -427 -418 -751 -13 -129 -2
-297 28 -429 14 -64 14 -73 -1 -120 -10 -28 -21 -47 -25 -42 -4 4 -22 46 -40
93 -47 121 -136 296 -229 452 -84 140 -111 214 -111 300 0 34 5 52 18 62 9 8
46 38 82 67 352 284 518 675 457 1074 -19 119 -62 261 -82 268 -17 7 -127 -52
-217 -116 -80 -57 -206 -188 -255 -264 -54 -85 -99 -189 -130 -299 -25 -92
-27 -112 -27 -299 0 -169 3 -216 22 -302 23 -105 28 -163 14 -163 -4 0 -43 41
-86 90 -43 50 -145 154 -227 233 -117 111 -156 155 -179 201 -17 33 -30 68
-30 79 0 11 32 53 75 96 358 362 457 835 267 1279 -47 109 -58 113 -145 46
-311 -238 -452 -533 -434 -905 7 -135 35 -284 77 -403 17 -46 30 -90 30 -96 0
-6 -26 8 -57 30 -174 126 -387 260 -575 360 -98 53 -118 68 -148 113 -91 135
-261 278 -412 346 -198 90 -479 107 -738 45 -164 -39 -220 -62 -220 -91 0 -44
219 -268 344 -352 170 -115 385 -190 545 -191 l46 -1 -83 -39 c-169 -80 -347
-210 -347 -254 0 -45 229 -149 415 -188 112 -24 305 -21 405 6 135 36 277 110
379 197 54 46 61 49 112 49 30 0 69 -6 87 -14 73 -30 471 -348 444 -354 -8 -2
-39 15 -69 38 -67 52 -213 123 -298 146 -47 13 -103 18 -205 18 -150 1 -235
-16 -369 -70 -131 -53 -326 -181 -326 -215 0 -30 151 -122 292 -178 136 -54
207 -66 373 -65 132 1 160 4 238 27 99 30 217 88 292 141 41 29 59 36 98 36
97 0 130 -16 209 -99 81 -84 187 -214 250 -306 l41 -60 -54 51 c-182 174 -361
245 -614 245 -152 0 -320 -35 -457 -93 -69 -29 -65 -48 30 -145 259 -267 560
-375 885 -318 47 8 117 26 157 41 l71 25 46 -27 c106 -62 137 -108 223 -327
22 -54 46 -124 56 -155 46 -157 52 -182 44 -182 -5 0 -31 46 -59 103 -141 284
-381 446 -726 488 -87 11 -293 7 -328 -7 -25 -9 -21 -37 19 -117 118 -234 299
-414 506 -504 119 -52 238 -74 388 -72 157 1 143 4 180 -27 78 -66 101 -190
99 -550 -1 -228 -9 -279 -29 -164 -39 231 -146 417 -315 547 -142 110 -381
205 -551 219 -85 8 -87 6 -68 -86 46 -227 172 -458 320 -589 131 -116 289
-190 470 -222 78 -14 94 -33 119 -142 15 -66 15 -75 -5 -176 -12 -58 -40 -178
-63 -266 l-42 -160 -7 103 c-19 282 -138 497 -372 669 -126 93 -363 200 -388
175 -16 -16 -11 -201 8 -309 59 -340 264 -599 574 -728 36 -15 68 -32 72 -39
4 -6 8 -46 8 -89 0 -68 -5 -92 -41 -184 -80 -204 -205 -424 -349 -617 -103
-138 -115 -142 -46 -13 221 408 143 854 -219 1254 -50 55 -73 73 -89 71 -40
-6 -130 -220 -172 -413 -23 -109 -23 -321 0 -430 38 -175 129 -350 248 -479
61 -66 68 -79 68 -115 0 -22 -11 -71 -25 -108 -21 -60 -35 -78 -112 -153 -102
-98 -130 -122 -233 -206 -96 -78 -314 -234 -319 -228 -2 2 28 37 66 78 190
200 277 413 276 681 0 193 -46 382 -139 571 -49 101 -64 119 -91 110 -21 -7
-120 -122 -185 -216 -243 -350 -275 -756 -88 -1133 l42 -84 -22 -47 c-12 -25
-42 -63 -65 -84 -61 -54 -489 -270 -697 -353 -37 -14 -48 -16 -48 -6 0 8 21
29 48 47 120 86 244 225 311 352 85 158 117 318 108 536 -6 154 -25 259 -72
398 -43 127 -50 129 -147 43 -310 -275 -448 -552 -448 -896 0 -128 25 -272 65
-379 28 -74 24 -90 -36 -159 -27 -31 -53 -42 -242 -104 -117 -38 -288 -88
-381 -112 -166 -41 -171 -42 -235 -29 -157 31 -623 171 -702 211 -20 10 -50
39 -67 64 l-30 45 28 73 c87 224 94 506 16 733 -69 203 -187 369 -395 554 -69
61 -90 70 -109 47 -16 -18 -61 -158 -83 -256 -26 -114 -36 -353 -19 -458 41
-259 171 -477 381 -639 31 -24 59 -52 62 -64 3 -11 4 -20 2 -20 -11 0 -239
101 -364 161 -326 156 -424 223 -451 305 -10 28 -7 38 19 81 38 62 87 183 112
281 27 101 36 304 19 409 -25 159 -104 351 -202 490 -70 100 -171 213 -190
213 -38 0 -137 -209 -182 -383 -100 -384 -22 -703 241 -989 31 -34 51 -64 45
-66 -29 -9 -331 222 -538 414 -99 91 -102 95 -128 173 -14 44 -26 90 -26 102
0 13 27 50 68 93 260 274 348 636 247 1014 -45 170 -115 324 -149 330 -35 7
-184 -164 -275 -317 -195 -324 -211 -675 -45 -992 20 -37 34 -77 32 -89 -6
-45 -225 274 -332 482 -123 242 -163 376 -139 466 7 29 16 36 88 65 374 151
592 488 596 924 0 61 -4 110 -10 116 -15 15 -146 -33 -258 -95 -245 -134 -414
-337 -474 -566 -12 -46 -23 -127 -26 -201 -3 -68 -9 -117 -13 -110 -16 29 -72
242 -104 395 -31 148 -32 163 -20 220 7 34 21 79 33 101 19 39 23 41 78 48 32
4 96 18 142 31 343 100 575 364 671 765 10 44 16 87 13 96 -13 34 -231 -7
-390 -72 -217 -90 -378 -234 -469 -420 -41 -85 -84 -222 -84 -270 0 -13 -9
-33 -19 -46 l-19 -23 -7 99 c-9 113 -1 378 15 505 12 92 42 156 92 193 24 18
44 20 200 22 142 1 187 5 251 23 261 72 481 259 620 529 51 98 57 127 30 138
-36 13 -250 17 -335 6 -357 -48 -596 -216 -734 -517 -37 -81 -71 -109 -60 -49
23 121 161 486 206 543 28 35 128 109 158 117 13 3 52 -5 93 -20 363 -131 741
-30 1042 278 94 96 98 116 30 145 -140 59 -308 93 -460 93 -242 -1 -427 -72
-594 -229 -36 -34 -78 -79 -94 -102 -15 -22 -32 -40 -37 -40 -24 0 192 287
327 436 82 90 111 104 222 104 51 0 64 -5 108 -36 256 -183 586 -223 890 -107
149 57 305 150 305 183 0 23 -110 105 -221 164 -219 117 -470 154 -679 100
-89 -22 -212 -82 -288 -138 -34 -25 -72 -46 -84 -46 -21 0 -21 0 -2 21 28 32
206 176 311 252 112 82 146 97 222 97 57 0 62 -2 118 -50 102 -87 240 -159
378 -196 101 -27 349 -26 455 3 175 48 362 139 368 179 6 44 -224 205 -394
275 -27 12 -25 13 46 20 184 20 391 102 547 218 83 62 268 249 293 296 21 40
4 56 -91 86 -138 44 -227 60 -375 66 -260 11 -446 -37 -629 -160 -80 -54 -185
-156 -247 -240 -40 -54 -63 -74 -112 -99 -154 -77 -401 -228 -575 -349 -69
-48 -111 -72 -108 -62 90 275 112 404 104 593 -13 267 -108 488 -293 674 -75
75 -197 166 -223 166 -15 0 -28 -14 -45 -47z m214 -155 c96 -97 148 -169 201
-283 101 -215 114 -481 37 -759 l-23 -81 -8 105 c-23 313 -109 650 -247 968
-32 72 -54 132 -50 132 4 0 45 -37 90 -82z m5130 42 c-11 -22 -40 -88 -64
-147 -125 -305 -206 -637 -222 -905 -7 -111 -7 -112 -21 -73 -60 174 -76 463
-35 629 37 150 120 304 224 417 35 38 126 119 134 119 2 0 -5 -18 -16 -40z
m-5187 -448 c64 -257 136 -534 158 -615 22 -82 38 -152 34 -155 -3 -3 -35 25
-70 64 -306 329 -402 706 -279 1096 14 43 28 78 32 78 4 -1 60 -211 125 -468z
m5316 406 c39 -119 53 -209 53 -343 1 -241 -67 -439 -222 -643 -59 -78 -170
-196 -177 -188 -2 2 45 192 105 422 60 231 131 508 158 617 27 108 52 197 55
197 4 0 17 -28 28 -62z m-5229 -419 c44 -145 94 -368 88 -395 -2 -9 -34 107
-72 257 -38 151 -71 281 -74 289 -3 12 -2 12 7 -1 5 -8 28 -76 51 -150z m4977
-129 c-74 -287 -99 -348 -52 -123 32 154 106 403 119 403 2 0 -28 -126 -67
-280z m-2889 144 c45 -9 81 -18 80 -20 -2 -1 -44 -8 -93 -14 -286 -37 -593
-132 -892 -275 -73 -35 -133 -59 -133 -53 0 6 48 58 108 117 150 149 280 218
480 256 100 19 336 13 450 -11z m1253 11 c192 -33 341 -107 480 -237 33 -31
129 -144 129 -152 0 -2 -46 19 -102 48 -296 150 -627 255 -932 296 -90 12
-100 16 -59 24 32 6 136 24 173 30 64 9 235 5 311 -9z m-1171 -191 c-116 -117
-195 -175 -325 -239 -169 -84 -236 -99 -440 -99 -143 1 -183 4 -250 22 -43 12
-83 26 -87 30 -4 4 79 34 184 66 302 92 464 142 728 227 135 43 252 78 260 78
8 1 -24 -38 -70 -85z m881 -7 c162 -51 425 -134 586 -183 161 -49 289 -92 285
-96 -21 -20 -187 -51 -302 -55 -244 -10 -464 62 -665 217 -81 63 -227 210
-209 210 6 0 143 -42 305 -93z m-3887 -15 c283 -217 416 -564 366 -958 -12
-96 -29 -157 -30 -106 0 42 -41 225 -77 342 -64 214 -179 474 -298 675 -72
123 -71 119 -43 104 13 -7 50 -32 82 -57z m2715 64 c-8 -8 -461 -147 -466
-143 -7 8 157 67 297 107 123 34 180 47 169 36z m1363 -27 c127 -34 308 -96
323 -111 6 -6 5 -7 -5 -4 -8 3 -112 35 -230 72 -118 36 -217 68 -219 70 -10 9
25 2 131 -27z m2677 9 c-7 -13 -30 -52 -52 -88 -58 -94 -180 -340 -220 -445
-76 -196 -157 -481 -157 -554 0 -11 -4 -21 -9 -21 -17 0 -34 201 -28 325 13
258 94 457 258 630 58 61 199 175 216 175 2 0 -2 -10 -8 -22z m-6825 -304
c148 -387 332 -858 346 -885 10 -18 9 -19 -7 -11 -69 38 -248 217 -320 323
-157 228 -215 527 -158 801 8 38 15 72 15 75 0 19 20 -31 124 -303z m6940 225
c35 -184 29 -336 -20 -506 -60 -208 -196 -405 -382 -556 -94 -76 -95 -76 -71
-15 93 234 276 704 349 893 110 287 102 267 106 262 3 -2 11 -37 18 -78z
m-6825 -306 c70 -148 195 -491 171 -467 -5 5 -52 122 -105 259 -54 138 -102
258 -107 269 -7 12 -7 16 0 12 6 -3 24 -36 41 -73z m6521 -170 c-121 -313
-122 -315 -127 -310 -6 7 80 259 120 352 65 152 90 205 95 201 2 -3 -37 -112
-88 -243z m-4695 188 l40 -18 -60 -6 c-51 -6 -118 -23 -200 -52 -11 -4 21 16
70 44 50 28 95 50 100 50 6 0 28 -8 50 -18z m3095 -55 c0 -2 -32 5 -72 15 -39
11 -88 19 -107 20 l-36 0 40 18 40 18 68 -34 c37 -18 67 -35 67 -37z m-2810
-47 c88 -21 282 -109 334 -152 l30 -24 -92 23 c-192 48 -298 59 -593 59 -300
0 -299 0 -185 50 164 72 324 86 506 44z m2722 1 c70 -17 228 -82 228 -94 0 -3
-91 -2 -203 1 -132 4 -249 2 -333 -6 -125 -12 -350 -53 -401 -72 -43 -16 -39
-10 16 28 75 50 223 118 301 138 134 35 262 37 392 5z m-3538 -115 c4 -11 -2
-15 -26 -15 -30 0 -31 1 -12 15 24 18 31 18 38 0z m4000 0 c19 -14 19 -15 -7
-15 -17 0 -27 5 -27 15 0 19 9 19 34 0z m-694 -39 c0 -2 -7 -7 -16 -10 -8 -3
-12 -2 -9 4 6 10 25 14 25 6z m-2547 -13 c-13 -2 -33 -2 -45 0 -13 2 -3 4 22
4 25 0 35 -2 23 -4z m-148 -53 c198 -16 407 -32 465 -36 164 -11 169 -14 75
-54 -162 -67 -235 -83 -395 -84 -123 -1 -157 3 -224 22 -113 33 -296 129 -336
177 -10 12 -6 13 22 9 18 -2 195 -18 393 -34z m3185 35 c0 -12 -113 -87 -186
-124 -131 -66 -216 -85 -374 -86 -110 0 -151 4 -224 24 -92 24 -261 90 -252
98 3 3 139 16 303 29 235 19 641 54 721 63 6 0 12 -1 12 -4z m-4187 -162 c8
-7 -31 -53 -44 -53 -5 0 0 13 9 30 18 31 24 35 35 23z m4781 -18 c23 -35 20
-39 -14 -14 -16 12 -27 26 -24 31 9 14 21 9 38 -17z m1550 -42 c-217 -367
-343 -678 -406 -998 -26 -134 -31 -129 -49 56 -31 326 70 627 278 831 47 46
187 156 201 158 2 0 -9 -21 -24 -47z m-7821 -26 c81 -59 189 -175 235 -251
117 -192 166 -432 141 -682 -17 -170 -22 -174 -48 -38 -57 294 -190 633 -361
921 -33 56 -60 105 -60 108 0 9 15 -1 93 -58z m-51 -292 c66 -170 169 -435
229 -589 60 -153 109 -280 109 -283 0 -9 -87 63 -164 137 -152 145 -256 313
-312 505 -44 152 -45 373 -2 530 6 23 13 34 16 25 2 -8 59 -154 124 -325z
m8003 220 c30 -172 15 -362 -42 -518 -57 -160 -130 -274 -262 -411 -68 -70
-191 -175 -191 -162 0 3 65 170 144 373 79 202 183 472 232 600 52 136 92 226
96 219 4 -7 14 -53 23 -101z m-5783 66 c90 -23 207 -71 263 -107 l40 -25 -34
5 c-235 40 -526 48 -747 21 -71 -8 -142 -18 -158 -21 -43 -9 -25 10 50 52 75
42 178 80 255 93 78 14 242 5 331 -18z m3803 3 c96 -26 277 -116 262 -130 -3
-3 -31 -1 -63 5 -244 44 -608 42 -864 -4 -43 -8 -31 3 50 44 79 41 191 79 279
96 92 18 250 13 336 -11z m-3927 -161 c-10 -2 -26 -2 -35 0 -10 3 -2 5 17 5
19 0 27 -2 18 -5z m55 0 c-7 -2 -19 -2 -25 0 -7 3 -2 5 12 5 14 0 19 -2 13 -5z
m3670 0 c-29 -2 -77 -2 -105 0 -29 2 -6 3 52 3 58 0 81 -1 53 -3z m-4541 -34
c-23 -9 -27 -3 -12 16 11 13 15 13 21 3 5 -8 2 -15 -9 -19z m5295 -5 c-2 -2
-12 -1 -24 2 -14 4 -20 11 -16 20 5 13 8 12 24 -2 11 -10 18 -19 16 -20z
m-4402 -23 c409 -1 410 -2 385 -21 -38 -29 -198 -98 -287 -122 -61 -17 -107
-22 -213 -22 -152 -1 -205 9 -330 62 -78 33 -190 96 -190 107 0 3 51 3 113 1
61 -2 297 -5 522 -5z m4122 -4 c-6 -20 -219 -123 -292 -141 -111 -29 -262 -32
-376 -8 -103 21 -240 73 -317 119 l-47 28 450 5 c248 3 481 6 518 7 48 1 67
-2 64 -10z m-6168 -166 c55 -123 154 -398 148 -414 -2 -8 -47 102 -199 498
-34 87 -1 34 51 -84z m7643 82 c-105 -274 -196 -502 -200 -499 -15 16 193 546
214 546 2 0 -4 -21 -14 -47z m-5954 -188 c40 -9 72 -19 70 -21 -2 -2 -24 -6
-48 -8 -25 -3 -67 -8 -95 -12 -211 -24 -514 -109 -712 -200 -40 -18 -73 -29
-73 -24 0 15 147 145 203 179 75 44 164 80 246 96 88 19 311 13 409 -10z
m4616 11 c88 -17 174 -50 253 -97 56 -34 203 -164 203 -179 0 -5 -30 5 -67 22
-218 99 -507 178 -762 209 -115 14 -113 20 19 44 101 18 261 18 354 1z m-5507
-54 c8 -5 3 -16 -14 -37 -24 -29 -25 -29 -19 -5 3 14 6 31 6 38 0 14 9 15 27
4z m6011 -29 c13 -39 4 -42 -22 -7 -15 21 -16 28 -5 35 7 4 14 7 15 6 0 -1 6
-17 12 -34z m-5018 -84 c-263 -244 -578 -324 -891 -226 l-73 23 344 87 c190
49 417 108 505 132 88 24 165 43 170 44 6 0 -19 -27 -55 -60z m4670 -126 l305
-77 -73 -23 c-260 -81 -515 -43 -746 112 -80 53 -196 151 -196 165 0 3 91 -17
203 -47 111 -29 339 -88 507 -130z m-5063 131 c-3 -3 -12 -4 -19 -1 -8 3 -5 6
6 6 11 1 17 -2 13 -5z m-57 -14 c-34 -11 -60 -11 -35 0 11 5 29 8 40 8 16 0
15 -2 -5 -8z m-746 -271 c-34 -36 -40 -32 -18 15 14 28 20 33 31 24 11 -9 9
-16 -13 -39z m6407 10 l21 -41 -36 27 c-29 22 -34 30 -25 41 16 19 16 19 40
-27z m-7470 -153 c284 -134 474 -402 543 -765 28 -149 22 -157 -34 -47 -138
269 -328 518 -590 774 l-115 112 70 -24 c39 -13 96 -35 126 -50z m8592 -53
c-243 -239 -420 -470 -568 -743 l-56 -105 6 64 c14 143 81 347 155 471 86 146
226 279 368 350 54 27 202 87 221 89 3 1 -54 -56 -126 -126z m-8591 -268 c129
-170 298 -393 376 -494 78 -101 140 -186 138 -188 -11 -11 -205 85 -299 147
-287 190 -449 461 -476 793 -6 81 -6 86 10 70 9 -10 122 -157 251 -328z m1808
341 c0 -2 -29 -14 -65 -26 -169 -56 -480 -236 -659 -381 -138 -112 -139 -112
-71 3 130 223 350 361 630 397 78 9 165 13 165 7z m5160 -23 c250 -50 443
-191 559 -407 18 -32 30 -60 28 -62 -2 -2 -46 30 -98 72 -195 157 -409 285
-629 376 l-115 48 90 -5 c50 -4 124 -13 165 -22z m1823 -30 c-26 -372 -212
-668 -538 -861 -75 -44 -234 -116 -241 -109 -2 2 109 152 248 333 138 181 305
401 371 489 104 139 156 205 162 205 1 0 0 -26 -2 -57z m-6918 -50 c-116 -201
-290 -357 -476 -427 -95 -36 -224 -57 -320 -54 l-82 3 329 192 c181 106 381
224 444 262 63 39 119 70 123 71 5 0 -3 -21 -18 -47z m5008 -96 c133 -79 334
-197 446 -263 l205 -119 -79 -3 c-153 -6 -321 38 -456 118 -83 49 -207 164
-268 248 -49 67 -106 162 -96 162 3 0 115 -64 248 -143z m-5393 -21 c0 -2 -7
-7 -16 -10 -8 -3 -12 -2 -9 4 6 10 25 14 25 6z m-40 -20 c0 -2 -16 -13 -35
-25 -19 -11 -35 -18 -35 -16 0 5 61 45 68 45 1 0 2 -2 2 -4z m6900 -233 c-184
-243 -200 -262 -180 -223 25 50 150 227 213 302 189 227 177 200 -33 -79z
m-8215 92 c89 -108 242 -325 228 -325 -7 1 -235 296 -328 424 -51 71 8 12 100
-99z m669 -73 c-20 -64 -24 -64 -24 0 0 50 2 56 19 51 17 -4 18 -8 5 -51z
m6925 -1 l-1 -56 -13 40 c-18 54 -18 72 0 72 12 0 15 -13 14 -56z m-6939 -211
c0 -4 -8 -18 -18 -30 l-18 -23 4 36 c3 25 8 34 18 30 8 -3 14 -9 14 -13z
m6964 -12 c8 -35 -7 -37 -22 -4 -8 19 -8 26 1 29 15 5 13 7 21 -25z m-6175
-22 c-2 -2 -60 -45 -129 -97 -154 -115 -344 -304 -469 -467 -52 -67 -96 -120
-98 -118 -2 1 8 43 22 92 65 221 198 382 409 491 83 42 288 119 265 99z m5477
-30 c230 -78 408 -217 501 -392 37 -71 99 -251 89 -261 -2 -2 -21 20 -42 49
-145 199 -341 400 -526 538 -65 50 -113 90 -105 90 7 0 45 -11 83 -24z m-5400
-100 c-86 -256 -236 -436 -451 -540 -105 -52 -229 -93 -254 -85 -7 3 70 84
171 181 101 97 266 258 368 357 102 99 186 176 188 171 2 -4 -8 -43 -22 -84z
m5544 -243 c107 -104 239 -232 294 -284 61 -59 92 -95 83 -97 -32 -7 -147 31
-254 84 -172 85 -296 210 -387 391 -35 71 -86 209 -86 235 0 7 35 -22 78 -63
42 -42 165 -161 272 -266z m-5920 42 c-24 -25 -46 -45 -49 -45 -3 0 15 20 39
45 24 25 46 45 49 45 3 0 -15 -20 -39 -45z m5990 -10 c19 -19 32 -35 29 -35
-3 0 -20 16 -39 35 -19 19 -32 35 -29 35 3 0 20 -16 39 -35z m-7317 -182 c154
-55 253 -120 365 -238 84 -88 149 -183 198 -292 37 -81 94 -245 94 -271 0 -9
-23 18 -51 59 -174 253 -494 564 -766 743 -35 23 -63 44 -63 47 0 11 148 -21
223 -48z m8846 44 c-2 -2 -51 -36 -108 -77 -287 -202 -570 -483 -736 -730 -41
-61 -42 -60 -14 38 50 179 146 354 259 475 112 119 214 189 355 243 92 35 274
73 244 51z m-8822 -357 c170 -168 375 -370 456 -449 82 -79 146 -145 144 -147
-7 -7 -182 45 -256 76 -284 117 -478 305 -591 572 -40 93 -87 278 -66 257 2
-2 143 -141 313 -309z m8873 202 c-81 -320 -300 -573 -610 -709 -88 -39 -279
-98 -287 -89 -3 2 58 64 133 137 76 74 282 277 458 451 177 174 322 311 324
303 2 -7 -6 -49 -18 -93z m-8140 31 c0 -31 -2 -54 -4 -52 -2 2 -11 28 -19 57
-15 50 -15 52 4 52 17 0 19 -7 19 -57z m7126 31 c-4 -15 -13 -41 -21 -58 -14
-31 -14 -31 -13 27 1 49 4 57 21 57 16 0 18 -5 13 -26z m-7702 -304 c82 -77
192 -191 232 -240 29 -34 29 -34 3 -15 -15 11 -116 109 -225 219 -179 179
-185 202 -10 36z m1405 123 c-13 -15 -31 -34 -40 -43 -42 -41 -168 -205 -237
-309 -42 -64 -114 -190 -160 -281 l-84 -165 7 97 c18 289 163 510 441 676 48
29 90 52 93 52 2 0 -6 -12 -20 -27z m5601 -73 c222 -151 350 -371 366 -630 l6
-95 -84 165 c-113 225 -247 425 -381 570 -88 95 -89 98 -22 60 33 -18 85 -50
115 -70z m1227 -105 c-114 -113 -210 -205 -213 -205 -12 0 81 103 184 203 104
102 222 207 232 207 3 -1 -89 -93 -203 -205z m-6701 116 c-15 -180 -85 -371
-184 -502 -60 -78 -123 -136 -215 -196 -68 -45 -182 -100 -175 -86 7 16 573
863 577 863 2 0 1 -36 -3 -79z m5481 -346 c153 -231 283 -426 287 -433 11 -19
-94 31 -171 81 -188 122 -311 295 -367 519 -22 85 -46 270 -33 258 2 -3 130
-194 284 -425z m-6377 233 c0 -27 -19 -63 -20 -38 0 8 -3 25 -6 38 -5 16 -2
22 10 22 10 0 16 -8 16 -22z m7000 -7 c0 -17 -4 -33 -10 -36 -5 -3 -10 0 -10
7 0 7 -3 23 -6 36 -5 16 -2 22 10 22 11 0 16 -9 16 -29z m-6409 -148 c-14 -24
-55 -72 -45 -53 10 20 47 70 51 70 2 0 -1 -8 -6 -17z m5849 -44 c15 -28 5 -23
-15 7 -9 15 -12 23 -6 20 6 -4 16 -16 21 -27z m-5339 -407 c44 -129 60 -232
60 -372 0 -194 -48 -354 -154 -517 -58 -91 -137 -180 -137 -156 0 10 18 135
40 278 44 292 130 880 130 898 1 22 32 -45 61 -131z m4914 -332 c36 -256 75
-521 85 -589 11 -69 18 -127 15 -129 -8 -8 -83 84 -137 170 -164 258 -195 567
-89 878 29 87 52 142 57 138 1 -2 32 -212 69 -468z m-5106 312 c-79 -242 -119
-517 -120 -822 0 -220 -3 -224 -59 -78 -51 133 -64 201 -63 338 1 178 46 331
145 496 38 64 125 184 133 184 1 0 -14 -53 -36 -118z m5235 -12 c165 -247 220
-515 156 -765 -19 -73 -73 -212 -90 -229 -5 -5 -9 67 -9 168 -1 327 -39 582
-130 867 l-30 94 30 -35 c16 -19 49 -64 73 -100z m-6666 -105 c214 -60 409
-181 577 -356 76 -80 151 -169 142 -169 -4 0 -34 18 -69 40 -274 178 -737 348
-1138 420 -172 31 -178 33 -109 53 123 36 211 47 359 43 118 -4 162 -9 238
-31z m662 -4 c0 -11 -5 -10 -20 4 -15 14 -17 20 -8 26 13 8 28 -7 28 -30z
m6723 31 c3 -4 -3 -18 -14 -31 -20 -24 -23 -21 -13 17 6 22 19 29 27 14z
m1113 -7 c44 -8 106 -24 139 -34 l60 -18 -40 -7 c-360 -65 -588 -127 -860
-235 -96 -39 -337 -159 -408 -204 -29 -18 -59 -37 -67 -42 -23 -14 45 68 134
162 183 194 448 345 669 382 87 14 288 12 373 -4z m-7079 -322 c-18 -122 -35
-224 -38 -228 -13 -12 23 279 49 394 27 124 23 68 -11 -166z m-688 185 l-1
-43 -13 30 c-18 39 -18 55 0 55 11 0 15 -11 14 -42z m5884 -78 c15 -89 30
-193 41 -300 3 -26 1 -39 -3 -30 -5 8 -20 101 -35 205 -15 105 -29 204 -32
220 -3 21 -2 25 4 15 5 -8 17 -58 25 -110z m695 88 c-17 -52 -28 -56 -28 -10
0 35 3 42 19 42 18 0 19 -3 9 -32z m-7841 -59 c200 -74 1083 -390 1185 -424
48 -16 82 -33 75 -36 -7 -4 -57 -15 -112 -25 -139 -25 -408 -25 -523 0 -236
50 -428 150 -588 303 -94 90 -208 233 -186 233 6 0 72 -23 149 -51z m9213 -8
c-62 -88 -210 -232 -304 -295 -218 -146 -481 -217 -755 -203 -113 6 -293 32
-319 46 -7 4 52 29 135 58 244 84 793 280 1033 369 124 45 231 83 238 83 8 1
-5 -25 -28 -58z m-8658 -90 c129 -45 316 -123 393 -165 28 -15 41 -24 31 -21
-76 23 -783 279 -790 286 -15 13 236 -55 366 -100z m8353 100 c-6 -5 -120 -48
-255 -96 -135 -48 -306 -109 -381 -136 -151 -55 -178 -60 -104 -22 148 77 406
172 630 232 131 35 121 33 110 22z m-6255 -376 c181 -267 241 -564 169 -845
-22 -87 -88 -245 -97 -235 -3 3 -43 265 -88 581 -46 317 -85 590 -89 607 l-6
32 31 -35 c18 -19 53 -67 80 -105z m3874 -30 c-14 -88 -54 -360 -90 -604 -35
-244 -66 -446 -68 -448 -7 -7 -54 104 -80 187 -95 299 -34 641 163 910 44 61
94 121 97 118 1 -2 -8 -75 -22 -163z m147 -6 c63 -171 87 -404 59 -558 -30
-168 -109 -323 -229 -452 l-50 -54 35 115 c105 346 150 637 142 922 -3 147 -1
149 43 27z m-4209 -31 c-7 -289 45 -620 147 -939 l30 -92 -40 39 c-74 72 -157
205 -199 317 -48 127 -64 332 -40 484 16 99 87 323 102 323 2 0 2 -60 0 -132z
m-923 -159 c17 -28 31 -53 31 -55 0 -3 -20 14 -45 37 -35 33 -42 45 -34 56 6
7 12 13 14 13 1 0 16 -23 34 -51z m6048 39 c6 -9 -5 -26 -41 -58 -50 -45 -50
-45 -27 -10 12 19 27 45 33 58 13 25 21 28 35 10z m-1022 -70 c-20 -187 -29
-256 -47 -348 -34 -182 -35 -129 -1 103 36 252 42 287 48 287 3 0 3 -19 0 -42z
m-3994 -233 c20 -135 32 -242 28 -238 -13 15 -55 259 -67 396 -15 162 3 89 39
-158z m836 36 c140 -143 236 -313 288 -506 21 -78 30 -282 17 -366 -14 -92
-53 -232 -62 -222 -3 4 -23 64 -43 133 -48 170 -249 851 -286 974 l-30 99 32
-29 c17 -16 55 -53 84 -83z m2362 12 c-68 -223 -260 -876 -290 -983 -18 -63
-35 -119 -39 -123 -9 -11 -49 136 -62 228 -16 111 -4 285 27 390 55 190 157
356 312 508 43 43 79 77 79 77 1 0 -11 -44 -27 -97z m-2513 -213 c42 -263 138
-557 265 -812 26 -54 45 -98 41 -98 -25 0 -150 122 -219 215 -166 221 -215
537 -136 860 l17 70 8 -70 c5 -38 15 -113 24 -165z m2634 134 c12 -52 23 -147
26 -229 5 -119 3 -155 -15 -241 -46 -221 -140 -380 -310 -526 -36 -31 -67 -55
-68 -54 -1 1 13 35 33 75 72 148 117 260 169 416 64 191 99 343 122 522 10 73
19 131 20 129 2 -2 12 -43 23 -92z m-3995 -124 l7 -25 -26 24 c-19 18 -23 27
-14 32 15 10 23 2 33 -31z m5325 24 c0 -1 -11 -15 -25 -30 -28 -30 -29 -29
-14 14 7 20 15 29 25 25 8 -3 14 -7 14 -9z m-5900 -42 c170 -44 419 -154 519
-231 23 -18 21 -18 -60 0 -233 52 -359 63 -684 63 -242 1 -341 -3 -450 -17
-143 -19 -354 -53 -390 -64 -24 -7 40 47 110 92 91 59 181 103 276 135 147 51
213 60 399 56 143 -4 181 -8 280 -34z m6936 27 c147 -20 337 -96 479 -192 83
-56 126 -92 100 -84 -34 11 -244 45 -390 64 -109 14 -207 18 -440 18 -320 -1
-443 -11 -669 -59 -124 -26 -123 -24 25 60 169 96 385 173 542 193 93 12 265
12 353 0z m-4841 -340 c41 -139 73 -255 71 -257 -13 -13 -157 467 -155 516 1
24 3 19 84 -259z m2316 135 c-16 -66 -48 -173 -70 -239 -23 -65 -41 -121 -41
-124 0 -2 -3 -2 -6 1 -3 3 24 107 61 230 36 122 68 231 71 241 3 10 8 16 10
14 3 -3 -8 -58 -25 -123z m-4377 -56 c227 -16 238 -25 36 -28 -465 -7 -651 -7
-730 -1 l-85 7 145 12 c80 7 161 14 180 16 65 6 335 3 454 -6z m7029 -9 c70
-7 126 -13 125 -15 -4 -4 -591 -7 -803 -4 -163 2 -181 4 -125 12 202 29 544
32 803 7z m-1213 -69 c0 -5 -2 -10 -4 -10 -3 0 -8 5 -11 10 -3 6 -1 10 4 10 6
0 11 -4 11 -10z m-5323 -54 c-78 -50 -230 -125 -322 -159 -178 -67 -336 -92
-529 -84 -192 8 -349 49 -521 134 -74 38 -235 139 -235 148 0 3 375 5 834 3
l835 -3 -62 -39z m423 3 c0 -4 -13 -3 -29 2 -19 7 -28 16 -24 24 4 12 9 12 29
-2 13 -8 24 -19 24 -24z m4586 13 c-3 -5 -17 -12 -31 -15 l-26 -4 22 23 c21
23 50 19 35 -4z m1974 7 c-57 -45 -209 -134 -281 -165 -408 -174 -824 -134
-1276 124 -46 26 -83 49 -83 52 0 3 374 6 832 7 824 1 832 1 808 -18z m-6091
-323 c-9 -9 -50 25 -43 36 4 6 14 2 27 -11 12 -11 19 -23 16 -25z m3625 9
c-29 -22 -36 -18 -18 11 12 17 20 22 27 15 8 -8 5 -15 -9 -26z m-4184 -90
c122 -24 277 -78 410 -144 108 -54 254 -140 237 -141 -4 0 -47 9 -96 20 -440
98 -937 102 -1468 12 -57 -10 -103 -15 -103 -12 0 11 188 130 265 168 119 59
227 89 410 116 57 8 260 -3 345 -19z m5198 0 c97 -19 198 -53 297 -102 71 -35
255 -153 255 -164 0 -3 -57 4 -127 17 -472 83 -1037 77 -1436 -16 -48 -11 -93
-20 -100 -20 -22 1 127 91 238 145 309 149 591 194 873 140z m-4078 -236 c0
-5 -7 -9 -15 -9 -8 0 -15 7 -15 15 0 9 6 12 15 9 8 -4 15 -10 15 -15z m2510 6
c0 -9 -9 -15 -22 -15 -22 1 -23 1 -4 15 25 19 26 19 26 0z m-3555 -30 c145
-12 260 -27 275 -36 9 -5 -74 -7 -205 -5 -121 2 -362 5 -535 5 -357 2 -390 13
-98 34 178 13 421 14 563 2z m5168 -6 c222 -18 213 -27 -28 -28 -121 -1 -366
-4 -545 -6 -202 -3 -317 -2 -304 4 22 10 279 39 384 44 102 5 342 -2 493 -14z
m-4513 -79 c0 -5 -5 -10 -11 -10 -5 0 -7 5 -4 10 3 6 8 10 11 10 2 0 4 -4 4
-10z m4057 -16 c412 4 799 9 861 12 61 3 112 3 112 0 0 -3 -44 -34 -98 -70
-257 -171 -524 -246 -826 -233 -250 11 -496 94 -768 261 -37 22 -68 45 -68 50
0 5 9 1 20 -9 19 -17 56 -18 767 -11z m-4972 1 c55 -2 278 -5 495 -5 l395 0
-65 -41 c-158 -98 -378 -187 -560 -226 -129 -27 -422 -24 -545 6 -202 49 -405
146 -545 260 l-25 20 375 -5 c206 -2 420 -6 475 -9z m1695 -5 c11 -21 4 -25
-19 -11 -7 5 -10 14 -7 20 10 15 14 14 26 -9z m1712 -12 c-30 -12 -35 -8 -17
12 14 16 20 17 26 8 5 -8 2 -16 -9 -20z m-1054 -229 c-17 -11 -48 -11 -48 -1
0 15 10 19 36 14 19 -3 22 -7 12 -13z m422 6 c0 -8 -9 -15 -19 -15 -29 0 -35
18 -9 23 13 2 24 5 26 6 1 0 2 -6 2 -14z m-1135 -66 c89 -11 242 -46 265 -60
10 -6 1 -9 -30 -9 -25 0 -92 -7 -150 -15 -355 -50 -671 -153 -1037 -335 l-232
-116 52 74 c76 110 199 231 304 300 230 150 505 204 828 161z m2225 0 c222
-32 436 -141 594 -303 72 -74 176 -208 176 -227 0 -4 -28 8 -62 28 -372 210
-810 363 -1196 417 -62 9 -132 16 -155 16 -57 1 -33 13 73 38 204 49 377 58
570 31z m-1916 -179 c-25 -33 -85 -98 -133 -145 -341 -338 -742 -455 -1182
-344 -79 19 -154 47 -147 54 2 2 125 42 273 89 149 47 486 157 750 244 264 88
481 160 483 161 2 1 -18 -26 -44 -59z m2499 -381 c92 -29 164 -56 160 -60 -13
-11 -133 -48 -213 -64 -120 -25 -318 -30 -428 -11 -179 32 -370 115 -517 226
-90 68 -234 207 -300 291 l-44 56 587 -193 c323 -106 662 -216 755 -245z
m-2808 388 c-86 -32 -895 -294 -895 -290 0 2 39 22 88 45 199 92 406 164 622
217 161 39 160 39 190 39 23 0 23 0 -5 -11z m2005 -28 c69 -17 190 -52 270
-79 147 -49 397 -152 415 -172 7 -8 5 -9 -5 -6 -8 3 -211 69 -450 147 -239 78
-437 145 -440 148 -9 10 78 -6 210 -38z"/>
<path d="M5763 6268 l2 -223 43 -3 42 -3 0 225 0 226 -45 0 -44 0 2 -222z"/>
<path d="M3430 6430 l0 -39 84 -3 85 -3 -89 -165 c-49 -91 -90 -168 -90 -172
0 -5 72 -8 160 -8 l160 0 0 40 0 40 -90 0 c-54 0 -90 4 -90 10 0 6 38 81 85
166 47 86 85 160 85 165 0 4 -67 8 -150 8 l-150 1 0 -40z"/>
<path d="M3895 6365 c-89 -31 -135 -131 -100 -220 37 -99 147 -138 243 -86 18
10 23 9 28 -4 4 -9 18 -15 35 -15 l29 0 0 165 0 165 -30 0 c-21 0 -30 -5 -30
-16 0 -12 -5 -14 -17 -9 -90 38 -102 40 -158 20z m126 -94 c56 -56 27 -145
-52 -157 -28 -5 -41 -1 -67 21 -27 22 -32 34 -32 68 1 90 89 129 151 68z"/>
<path d="M4943 6368 c-17 -4 -36 -15 -43 -23 -17 -20 -27 -19 -33 5 -4 15 -14
20 -36 20 l-31 0 3 -162 2 -163 43 -3 42 -3 0 108 c0 128 12 156 63 151 46 -4
57 -34 57 -155 l0 -103 40 0 40 0 0 108 c0 127 12 155 63 150 46 -4 57 -34 57
-155 l0 -103 40 0 40 0 0 123 c0 105 -3 127 -20 155 -36 59 -120 72 -169 28
-22 -20 -27 -20 -52 3 -25 23 -64 30 -106 19z"/>
<path d="M5478 6371 c-74 -24 -118 -85 -118 -165 0 -117 102 -195 214 -165 42
11 110 72 103 93 -6 18 -59 15 -93 -5 -55 -33 -124 -18 -137 31 -5 19 -1 20
119 20 l124 0 0 38 c0 47 -36 111 -75 133 -37 22 -101 31 -137 20z m111 -99
l24 -27 -78 -3 c-42 -2 -80 0 -83 3 -10 9 12 39 39 53 32 17 69 7 98 -26z"/>
<path d="M5995 6365 c-22 -8 -41 -15 -41 -15 -1 0 -9 -16 -19 -35 -23 -49 -7
-97 39 -119 19 -9 41 -16 50 -16 25 0 86 -28 86 -39 0 -18 -31 -41 -55 -41
-13 0 -34 10 -45 23 -25 27 -90 32 -90 7 0 -16 27 -60 44 -73 27 -18 86 -27
127 -18 53 12 88 46 96 94 5 31 1 40 -24 66 -21 20 -44 31 -77 36 -26 4 -57
15 -69 25 -18 15 -19 20 -8 34 19 23 68 20 83 -4 18 -28 88 -29 88 -1 0 30
-36 67 -78 79 -49 15 -57 15 -107 -3z"/>
<path d="M6364 6371 c-77 -19 -124 -83 -124 -165 0 -117 102 -195 214 -165 42
11 110 72 103 93 -6 17 -69 14 -96 -6 -45 -34 -121 -16 -134 32 -5 19 -1 20
119 20 l124 0 0 38 c0 47 -36 111 -75 133 -38 22 -91 30 -131 20z m105 -99
l24 -27 -78 -3 c-42 -2 -80 0 -83 3 -10 9 12 39 39 53 32 17 69 7 98 -26z"/>
<path d="M4230 6205 l0 -165 40 0 40 0 0 110 c0 97 2 112 20 130 21 21 55 26
80 10 12 -7 16 -36 18 -130 l4 -120 38 0 38 0 4 116 c3 101 6 117 22 130 23
16 54 18 76 4 12 -7 16 -36 18 -130 l4 -120 39 0 39 0 0 128 c0 132 -6 155
-50 189 -27 22 -106 16 -136 -10 l-27 -23 -25 23 c-33 30 -102 32 -142 3 l-29
-21 -11 21 c-6 12 -21 20 -35 20 l-25 0 0 -165z"/>
<path d="M5324 5651 c-2 -2 -4 -19 -4 -38 0 -33 1 -33 46 -33 l45 0 -3 37 c-3
36 -4 37 -41 38 -21 0 -41 -2 -43 -4z"/>
<path d="M4540 5425 l0 -225 40 0 c25 0 40 5 41 13 1 18 1 388 0 415 -1 19 -6
22 -41 22 l-40 0 0 -225z"/>
<path d="M6520 5581 l0 -69 -42 15 c-76 26 -161 -6 -201 -75 -25 -42 -26 -125
-4 -169 43 -82 158 -115 235 -67 20 13 23 13 28 -1 4 -9 18 -15 35 -15 l29 0
0 225 0 225 -40 0 -40 0 0 -69z m-47 -132 c67 -31 65 -141 -4 -169 -95 -40
-173 78 -100 151 31 31 64 36 104 18z"/>
<path d="M2590 5589 l0 -38 58 -3 57 -3 3 -172 2 -173 40 0 c35 0 40 3 40 23
1 12 2 90 3 172 l2 150 58 3 57 3 0 40 0 39 -160 -1 -160 -1 0 -39z"/>
<path d="M3084 5531 c-44 -11 -91 -47 -110 -83 -24 -46 -21 -129 5 -172 53
-86 175 -107 262 -45 56 39 77 137 46 212 -28 65 -125 107 -203 88z m107 -100
c56 -57 27 -145 -53 -158 -32 -5 -41 -1 -68 25 -22 23 -30 40 -30 67 0 48 44
95 90 95 22 0 41 -9 61 -29z"/>
<path d="M3868 5530 c-102 -31 -149 -150 -98 -249 52 -102 213 -115 279 -22
12 16 21 33 21 38 0 16 -74 9 -100 -9 -46 -33 -120 -16 -133 32 -5 19 -1 20
120 20 l126 0 -5 49 c-5 54 -36 104 -76 125 -37 19 -101 26 -134 16z m111 -98
l24 -27 -78 -3 c-42 -2 -80 0 -83 3 -10 9 12 39 39 53 32 17 69 7 98 -26z"/>
<path d="M4245 5525 c-22 -7 -54 -30 -72 -51 -107 -122 13 -316 169 -273 40
10 118 74 118 96 0 16 -88 8 -108 -10 -27 -25 -84 -22 -110 6 -40 43 -31 47
104 47 l127 0 -7 47 c-14 107 -121 174 -221 138z m86 -65 c12 0 49 -37 49 -50
0 -6 -33 -10 -80 -10 -44 0 -80 3 -80 8 1 27 61 65 88 56 8 -2 18 -4 23 -4z"/>
<path d="M5605 5531 c-76 -18 -125 -84 -125 -166 0 -116 102 -194 214 -164 42
11 110 72 103 93 -6 17 -69 13 -96 -6 -45 -34 -121 -16 -134 32 -5 19 -1 20
120 20 l126 0 -5 49 c-10 101 -102 166 -203 142z m104 -99 l24 -27 -78 -3
c-42 -2 -80 0 -83 3 -10 9 12 39 39 53 32 17 69 7 98 -26z"/>
<path d="M6787 5526 c-73 -27 -110 -80 -110 -161 0 -57 21 -104 59 -134 53
-42 137 -48 194 -14 23 13 70 70 70 85 0 12 -77 1 -100 -14 -36 -26 -86 -23
-115 7 -14 13 -25 29 -25 35 0 6 45 10 125 10 l125 0 0 32 c0 46 -37 114 -73
137 -45 27 -104 33 -150 17z m111 -78 c7 -6 18 -20 23 -30 9 -17 4 -18 -77
-18 l-86 0 14 23 c30 44 88 56 126 25z"/>
<path d="M7232 5529 c-18 -4 -42 -15 -53 -25 -17 -16 -22 -16 -29 -4 -6 8 -10
18 -10 23 0 4 -13 7 -30 7 l-30 0 0 -165 0 -165 40 0 c31 0 40 4 41 18 1 9 2
49 3 87 3 108 5 114 26 135 24 24 72 26 94 4 13 -12 16 -39 16 -130 l0 -115
43 3 42 3 -1 120 c-1 119 -13 171 -45 191 -22 13 -75 20 -107 13z"/>
<path d="M3380 5365 l0 -165 40 0 40 0 0 104 c0 90 3 107 21 130 17 22 28 26
57 24 51 -4 62 -30 62 -155 l0 -103 40 0 40 0 0 115 c0 126 -12 171 -51 199
-32 22 -106 21 -146 -4 -32 -19 -33 -19 -43 0 -6 12 -21 20 -35 20 l-25 0 0
-165z"/>
<path d="M4683 5517 c3 -7 33 -81 67 -165 l62 -152 38 0 38 0 62 158 c35 86
64 160 67 165 2 4 -16 7 -40 7 l-45 0 -38 -110 c-22 -60 -41 -110 -44 -110 -3
0 -22 50 -44 110 l-38 110 -45 0 c-33 0 -44 -4 -40 -13z"/>
<path d="M5070 5365 l0 -165 45 0 45 0 0 108 c0 125 9 142 74 142 37 0 37 0
34 40 -2 37 -4 40 -32 40 -17 0 -46 -9 -64 -20 l-34 -21 -5 21 c-4 14 -14 20
-34 20 l-29 0 0 -165z"/>
<path d="M5321 5365 l-1 -165 45 0 45 0 0 165 0 165 -44 0 -45 0 0 -165z"/>
<path d="M5881 5365 l-1 -165 45 0 45 0 0 108 c0 95 2 111 20 130 24 26 72 29
94 6 18 -17 17 -15 21 -139 2 -49 3 -93 4 -97 0 -5 19 -8 41 -8 l40 0 0 108
c0 183 -27 227 -132 220 -35 -3 -65 -11 -76 -21 -24 -22 -29 -21 -35 3 -4 14
-14 20 -35 20 l-31 0 0 -165z"/>
<path d="M5210 4166 c0 -18 6 -25 23 -28 21 -3 22 -7 23 -113 2 -143 0 -135
29 -135 l25 0 0 150 0 150 -50 0 c-46 0 -50 -2 -50 -24z"/>
<path d="M5399 4161 c-60 -61 -26 -161 56 -161 19 0 35 -3 35 -7 0 -5 -11 -26
-25 -48 -31 -51 -31 -55 5 -55 26 0 34 8 70 73 47 85 57 126 40 167 -17 40
-51 60 -105 60 -38 0 -52 -5 -76 -29z m112 -31 c22 -12 26 -59 7 -78 -21 -21
-66 -14 -84 13 -15 23 -15 27 0 50 17 26 45 32 77 15z"/>
<path d="M5655 4133 c-3 -32 -7 -67 -8 -78 -2 -17 5 -20 53 -23 30 -2 60 -8
67 -14 18 -14 16 -43 -3 -62 -21 -21 -41 -20 -61 4 -10 11 -30 20 -45 20 -26
0 -26 -1 -16 -30 12 -35 53 -60 98 -60 42 0 67 15 86 52 34 66 -11 138 -88
138 -37 0 -39 2 -36 28 3 26 6 27 61 30 53 3 57 5 57 27 0 24 -2 25 -79 25
l-80 0 -6 -57z"/>
<path d="M5913 4168 c-11 -13 -24 -33 -28 -45 -5 -20 -3 -23 22 -23 17 0 33 8
41 20 24 40 80 13 69 -32 -4 -13 -36 -60 -72 -105 -36 -45 -65 -84 -65 -87 0
-3 45 -6 100 -6 l100 0 0 30 c0 29 -1 30 -47 30 l-47 0 25 28 c43 46 62 84 63
125 1 31 -5 44 -27 63 -38 33 -105 33 -134 2z"/>
<path d="M3983 4125 c-87 -37 -94 -178 -12 -220 34 -18 92 -19 122 -4 16 9 22
9 25 0 2 -6 15 -11 28 -11 l24 0 0 120 0 120 -25 0 c-14 0 -25 -4 -25 -9 0 -6
-16 -3 -35 5 -42 17 -61 17 -102 -1z m107 -65 c41 -41 7 -120 -52 -120 -24 0
-68 44 -68 68 0 59 79 93 120 52z"/>
<path d="M4328 4122 c-30 -16 -38 -17 -42 -6 -3 8 -15 14 -26 14 -19 0 -20 -6
-20 -120 l0 -120 30 0 30 0 0 79 c0 89 12 111 60 111 35 0 40 -13 40 -111 l0
-79 30 0 30 0 0 94 c0 84 -3 98 -22 120 -32 35 -66 40 -110 18z"/>
<path d="M4618 4121 c-30 -15 -38 -16 -42 -5 -3 8 -15 14 -26 14 -19 0 -20 -6
-20 -120 l0 -120 30 0 30 0 0 79 c0 95 15 119 70 111 25 -3 30 -21 30 -107 l0
-83 30 0 30 0 0 90 c0 103 -11 135 -53 150 -39 13 -36 13 -79 -9z"/>
<path d="M4873 4124 c-115 -57 -74 -234 53 -234 89 0 141 54 131 137 -5 50
-28 80 -74 99 -42 18 -70 17 -110 -2z m108 -65 c45 -45 -3 -129 -65 -113 -30
7 -58 56 -48 83 18 52 76 67 113 30z"/>
</g>
</svg>
